o Tree
v 0.19426755607128143 3.9016079902648926 0.20820137858390808 0.8627451062202454 0.7254902124404907 0.3960784375667572
v 0.19426755607128143 3.9016079902648926 -0.20820137858390808 0.8627451062202454 0.7254902124404907 0.3960784375667572
v 0.19426755607128143 0.018313517794013023 0.20820137858390808 0.8627451062202454 0.7254902124404907 0.3960784375667572
v 0.19426755607128143 0.018313517794013023 -0.20820137858390808 0.8627451062202454 0.7254902124404907 0.3960784375667572
v -0.19426755607128143 3.9016079902648926 -0.20820137858390808 0.8627451062202454 0.7254902124404907 0.3960784375667572
v -0.19426755607128143 3.9016079902648926 0.20820137858390808 0.8627451062202454 0.7254902124404907 0.3960784375667572
v -0.19426755607128143 0.018313517794013023 -0.20820137858390808 0.8627451062202454 0.7254902124404907 0.3960784375667572
v -0.19426755607128143 0.018313517794013023 0.20820137858390808 0.8627451062202454 0.7254902124404907 0.3960784375667572
v -0.19426755607128143 3.9016079902648926 -0.20820137858390808 0.8627451062202454 0.7254902124404907 0.3960784375667572
v 0.19426755607128143 3.9016079902648926 -0.20820137858390808 0.8627451062202454 0.7254902124404907 0.3960784375667572
v -0.19426755607128143 3.9016079902648926 0.20820137858390808 0.8627451062202454 0.7254902124404907 0.3960784375667572
v 0.19426755607128143 3.9016079902648926 0.20820137858390808 0.8627451062202454 0.7254902124404907 0.3960784375667572
v -0.19426755607128143 0.018313517794013023 0.20820137858390808 0.8627451062202454 0.7254902124404907 0.3960784375667572
v 0.19426755607128143 0.018313517794013023 0.20820137858390808 0.8627451062202454 0.7254902124404907 0.3960784375667572
v -0.19426755607128143 0.018313517794013023 -0.20820137858390808 0.8627451062202454 0.7254902124404907 0.3960784375667572
v 0.19426755607128143 0.018313517794013023 -0.20820137858390808 0.8627451062202454 0.7254902124404907 0.3960784375667572
v -0.19426755607128143 3.9016079902648926 0.20820137858390808 0.8627451062202454 0.7254902124404907 0.3960784375667572
v 0.19426755607128143 3.9016079902648926 0.20820137858390808 0.8627451062202454 0.7254902124404907 0.3960784375667572
v -0.19426755607128143 0.018313517794013023 0.20820137858390808 0.8627451062202454 0.7254902124404907 0.3960784375667572
v 0.19426755607128143 0.018313517794013023 0.20820137858390808 0.8627451062202454 0.7254902124404907 0.3960784375667572
v 0.19426755607128143 3.9016079902648926 -0.20820137858390808 0.8627451062202454 0.7254902124404907 0.3960784375667572
v -0.19426755607128143 3.9016079902648926 -0.20820137858390808 0.8627451062202454 0.7254902124404907 0.3960784375667572
v 0.19426755607128143 0.018313517794013023 -0.20820137858390808 0.8627451062202454 0.7254902124404907 0.3960784375667572
v -0.19426755607128143 0.018313517794013023 -0.20820137858390808 0.8627451062202454 0.7254902124404907 0.3960784375667572
v 0 4.806774139404297 0 0.0117647061124444 0.6784313917160034 0
v 0 4.806774139404297 0 0.0117647061124444 0.6784313917160034 0
v 0 4.806774139404297 0 0.0117647061124444 0.6784313917160034 0
v 0 4.806774139404297 0 0.0117647061124444 0.6784313917160034 0
v 0 4.806774139404297 0 0.0117647061124444 0.6784313917160034 0
v 0.6593506336212158 3.292463541030884 0.6593506336212158 0.0117647061124444 0.6784313917160034 0
v 0.572030246257782 3.292463541030884 -0.572030246257782 0.0117647061124444 0.6784313917160034 0
v -0.6593506336212158 3.292463541030884 -0.6593506336212158 0.0117647061124444 0.6784313917160034 0
v -0.572030246257782 3.292463541030884 0.572030246257782 0.0117647061124444 0.6784313917160034 0
v 0.6593506336212158 3.292463541030884 0.6593506336212158 0.0117647061124444 0.6784313917160034 0
v 0 3.292463541030884 0 0.0117647061124444 0.6784313917160034 0
v 0 3.292463541030884 0 0.0117647061124444 0.6784313917160034 0
v 0 3.292463541030884 0 0.0117647061124444 0.6784313917160034 0
v 0 3.292463541030884 0 0.0117647061124444 0.6784313917160034 0
v 0.6593506336212158 3.292463541030884 0.6593506336212158 0.0117647061124444 0.6784313917160034 0
v 0.572030246257782 3.292463541030884 -0.572030246257782 0.0117647061124444 0.6784313917160034 0
v -0.6593506336212158 3.292463541030884 -0.6593506336212158 0.0117647061124444 0.6784313917160034 0
v -0.572030246257782 3.292463541030884 0.572030246257782 0.0117647061124444 0.6784313917160034 0
v 0.6593506336212158 3.292463541030884 0.6593506336212158 0.0117647061124444 0.6784313917160034 0
v -0.06335990130901337 4.081477165222168 -0.051872603595256805 0.0117647061124444 0.6784313917160034 0
v -0.06335990130901337 4.081477165222168 -0.051872603595256805 0.0117647061124444 0.6784313917160034 0
v -0.06335990130901337 4.081477165222168 -0.051872603595256805 0.0117647061124444 0.6784313917160034 0
v -0.06335990130901337 4.081477165222168 -0.051872603595256805 0.0117647061124444 0.6784313917160034 0
v -0.06335990130901337 4.081477165222168 -0.051872603595256805 0.0117647061124444 0.6784313917160034 0
v 0.6426323652267456 2.0571091175079346 0.6541196703910828 0.0117647061124444 0.6784313917160034 0
v 0.5086703300476074 2.0571091175079346 -0.6239027976989746 0.0117647061124444 0.6784313917160034 0
v -0.76935213804245 2.0571091175079346 -0.7578648328781128 0.0117647061124444 0.6784313917160034 0
v -0.6353901028633118 2.0571091175079346 0.5201576352119446 0.0117647061124444 0.6784313917160034 0
v 0.6426323652267456 2.0571091175079346 0.6541196703910828 0.0117647061124444 0.6784313917160034 0
v -0.06335990130901337 2.0571091175079346 -0.051872603595256805 0.0117647061124444 0.6784313917160034 0
v -0.06335990130901337 2.0571091175079346 -0.051872603595256805 0.0117647061124444 0.6784313917160034 0
v -0.06335990130901337 2.0571091175079346 -0.051872603595256805 0.0117647061124444 0.6784313917160034 0
v -0.06335990130901337 2.0571091175079346 -0.051872603595256805 0.0117647061124444 0.6784313917160034 0
v 0.6426323652267456 2.0571091175079346 0.6541196703910828 0.0117647061124444 0.6784313917160034 0
v 0.5086703300476074 2.0571091175079346 -0.6239027976989746 0.0117647061124444 0.6784313917160034 0
v -0.76935213804245 2.0571091175079346 -0.7578648328781128 0.0117647061124444 0.6784313917160034 0
v -0.6353901028633118 2.0571091175079346 0.5201576352119446 0.0117647061124444 0.6784313917160034 0
v 0.6426323652267456 2.0571091175079346 0.6541196703910828 0.0117647061124444 0.6784313917160034 0
vt 0 1
vt 1 1
vt 0 0
vt 1 0
vt 0 1
vt 1 1
vt 0 0
vt 1 0
vt 0 1
vt 1 1
vt 0 0
vt 1 0
vt 0 1
vt 1 1
vt 0 0
vt 1 0
vt 0 1
vt 1 1
vt 0 0
vt 1 0
vt 0 1
vt 1 1
vt 0 0
vt 1 0
vt 0 1
vt 0.25 1
vt 0.5 1
vt 0.75 1
vt 1 1
vt 0 0
vt 0.25 0
vt 0.5 0
vt 0.75 0
vt 1 0
vt 0.5 0.5
vt 0.5 0.5
vt 0.5 0.5
vt 0.5 0.5
vt 1 0.5
vt 0.5 0
vt 0 0.5
vt 0.5 1
vt 1 0.5
vt 0 1
vt 0.25 1
vt 0.5 1
vt 0.75 1
vt 1 1
vt 0 0
vt 0.25 0
vt 0.5 0
vt 0.75 0
vt 1 0
vt 0.5 0.5
vt 0.5 0.5
vt 0.5 0.5
vt 0.5 0.5
vt 1 0.5
vt 0.5 0
vt 0 0.5
vt 0.5 1
vt 1 0.5
vn 1 0 0
vn 1 0 0
vn 1 0 0
vn 1 0 0
vn -1 0 0
vn -1 0 0
vn -1 0 0
vn -1 0 0
vn 0 1 0
vn 0 1 0
vn 0 1 0
vn 0 1 0
vn 0 -1 0
vn 0 -1 0
vn 0 -1 0
vn 0 -1 0
vn 0 0 1
vn 0 0 1
vn 0 0 1
vn 0 0 1
vn 0 0 -1
vn 0 0 -1
vn 0 0 -1
vn 0 0 -1
vn 0.6021105647087097 0.524333655834198 0.6021105647087097
vn 0.6236883401870728 0.4711960554122925 -0.6236883401870728
vn -0.6021105647087097 0.524333655834198 -0.6021105647087097
vn -0.6236883401870728 0.4711960554122925 0.6236883401870728
vn 0.6021105647087097 0.524333655834198 0.6021105647087097
vn 0.6021105647087097 0.524333655834198 0.6021105647087097
vn 0.6236883401870728 0.4711960554122925 -0.6236883401870728
vn -0.6021105647087097 0.524333655834198 -0.6021105647087097
vn -0.6236883401870728 0.4711960554122925 0.6236883401870728
vn 0.6021105647087097 0.524333655834198 0.6021105647087097
vn 0 -1 0
vn 0 -1 0
vn 0 -1 0
vn 0 -1 0
vn 0 -1 0
vn 0 -1 0
vn 0 -1 0
vn 0 -1 0
vn 0 -1 0
vn 0.634170413017273 0.44232994318008423 0.634170413017273
vn 0.6566187143325806 0.37108442187309265 -0.6566187143325806
vn -0.634170413017273 0.44232994318008423 -0.634170413017273
vn -0.6566187143325806 0.37108442187309265 0.6566187143325806
vn 0.634170413017273 0.44232994318008423 0.634170413017273
vn 0.634170413017273 0.44232994318008423 0.634170413017273
vn 0.6566187143325806 0.37108442187309265 -0.6566187143325806
vn -0.634170413017273 0.44232994318008423 -0.634170413017273
vn -0.6566187143325806 0.37108442187309265 0.6566187143325806
vn 0.634170413017273 0.44232994318008423 0.634170413017273
vn 0 -1 0
vn 0 -1 0
vn 0 -1 0
vn 0 -1 0
vn 0 -1 0
vn 0 -1 0
vn 0 -1 0
vn 0 -1 0
vn 0 -1 0
f 1/1/1 3/3/3 2/2/2
f 3/3/3 4/4/4 2/2/2
f 5/5/5 7/7/7 6/6/6
f 7/7/7 8/8/8 6/6/6
f 9/9/9 11/11/11 10/10/10
f 11/11/11 12/12/12 10/10/10
f 13/13/13 15/15/15 14/14/14
f 15/15/15 16/16/16 14/14/14
f 17/17/17 19/19/19 18/18/18
f 19/19/19 20/20/20 18/18/18
f 21/21/21 23/23/23 22/22/22
f 23/23/23 24/24/24 22/22/22
f 30/30/30 31/31/31 26/26/26
f 31/31/31 32/32/32 27/27/27
f 32/32/32 33/33/33 28/28/28
f 33/33/33 34/34/34 29/29/29
f 40/40/40 39/39/39 35/35/35
f 41/41/41 40/40/40 36/36/36
f 42/42/42 41/41/41 37/37/37
f 43/43/43 42/42/42 38/38/38
f 49/49/49 50/50/50 45/45/45
f 50/50/50 51/51/51 46/46/46
f 51/51/51 52/52/52 47/47/47
f 52/52/52 53/53/53 48/48/48
f 59/59/59 58/58/58 54/54/54
f 60/60/60 59/59/59 55/55/55
f 61/61/61 60/60/60 56/56/56
f 62/62/62 61/61/61 57/57/57
